<?xml version="1.0" encoding="utf-8"?>
<!-- Generator: Adobe Illustrator 17.1.0, SVG Export Plug-In . SVG Version: 6.00 Build 0)  -->
<!DOCTYPE svg PUBLIC "-//W3C//DTD SVG 1.1//EN" "http://www.w3.org/Graphics/SVG/1.1/DTD/svg11.dtd">
<svg version="1.1" id="Layer_1" xmlns="http://www.w3.org/2000/svg" xmlns:xlink="http://www.w3.org/1999/xlink" x="0px" y="0px"
	 viewBox="0 0 256 256" enable-background="new 0 0 256 256" xml:space="preserve">
<g>
	<path fill-rule="evenodd" clip-rule="evenodd" fill="#B3E1FF" d="M128,256c70.5,0,128-57.6,128-128C256,57.5,198.5,0,128,0
		C57.5,0,0,57.5,0,128C0,198.4,57.5,256,128,256z"/>
	<ellipse fill="#DDFFFF" cx="110.1" cy="79" rx="75.1" ry="74.9"/>
</g>
<path fill="#DDFFFF" d="M165.9,185.2c-5.3,6.8-35.5,29.7-76.4,0.9c-0.2,0.7-1.8,2.6-2.2,3.2c7.5,10.5,22.1,38.5,40.9,37.1
	c20.3-1.5,32.4-26.5,39.8-38.4C167.5,187.7,166.3,185.9,165.9,185.2z"/>
<path fill="#CC1700" d="M167.2,187.2C167.3,187.2,167.3,187.1,167.2,187.2c0-0.2-1.2-1.8-1.2-2c-2.3,1.9-13.5,8.3-27,10.7
	c-3.4,0.5-7.2,0.7-11.3,0.8c-4.1-0.1-7.8-0.4-11.3-0.8c-13.5-2.3-24.7-7.9-27-9.8c-0.1,0.1-1.3,2-1.3,2c1.6,1.8,4,4.7,6.9,8.1
	c8.2,10,20.5,23.4,31.8,22.7c0.3,0,1.4,0,1.7,0c11.3,0.7,23.6-13.6,31.8-23.6C163.3,192,165.7,189.1,167.2,187.2
	C167.3,187.2,167.3,187.2,167.2,187.2z"/>
<g>
	<g>
		<g>
			<path fill="#FFFFFF" d="M101.7,164.4c-16.4,11.5-41.8,12.1-56.6,3.5c-22.5-13.2-26.3-48.4-8.5-78.7
				c17.8-30.3,50.5-61.4,73.1-48.2C132.2,54.1,110.4,158.3,101.7,164.4z"/>
			<path fill="#3E99DD" d="M50.3,165.5c-22.5-12.7-26.3-46.6-8.5-75.7c16.8-27.4,46.7-55.5,68.9-48.2c-0.3-0.2-0.6-0.5-1-0.6
				c-22.5-13.2-55.2,18-73.1,48.2c-17.8,30.3-14,65.5,8.5,78.7c13.5,7.9,36,8.1,52.3-0.9C81.8,173.2,62.4,172.4,50.3,165.5z"/>
		</g>
		<g>
			<path fill="#FFFFFF" d="M154.3,164.4c16.4,11.5,41.8,12.1,56.6,3.5c22.5-13.2,26.3-48.4,8.5-78.7c-17.8-30.3-50.5-61.4-73.1-48.2
				C123.8,54.1,145.6,158.3,154.3,164.4z"/>
			<path fill="#3E99DD" d="M219.3,89.2c-17.8-30.3-50.5-61.4-73.1-48.2c-0.3,0.2-0.7,0.4-1,0.6c22.2-7.3,52.1,20.8,68.9,48.2
				c17.8,29.1,14,63-8.5,75.7c-12.1,6.8-31.5,7.6-47.1,1.5c16.3,8.9,38.8,8.7,52.3,0.9C233.4,154.7,237.2,119.5,219.3,89.2z"/>
		</g>
	</g>
	<g>
		<ellipse fill="#3E99DD" cx="161.1" cy="79" rx="14.8" ry="14.7"/>
		<ellipse fill-rule="evenodd" clip-rule="evenodd" fill="#333333" cx="161.1" cy="79" rx="6.9" ry="6.9"/>
		<ellipse fill="#FFFFFF" cx="166.5" cy="73.3" rx="3.5" ry="3.5"/>
	</g>
	<g>
		<ellipse fill="#3E99DD" cx="95.3" cy="79" rx="14.8" ry="14.7"/>
		<ellipse fill-rule="evenodd" clip-rule="evenodd" fill="#333333" cx="95.3" cy="79" rx="6.9" ry="6.9"/>
		<ellipse fill="#FFFFFF" cx="90" cy="73.3" rx="3.5" ry="3.5"/>
	</g>
</g>
<path fill-rule="evenodd" clip-rule="evenodd" fill="#FFFF3E" d="M192.8,3c-12.4-1.8-28.5-1.9-41.3-2.5c1.2,0.2,3.6,1.5,6.1,3
	c5.7,1.4,11.2,3.1,16.5,5.2c22.2,2.2,32.4,5.4,32.5,8c0,1.4-0.2,2.9-2.7,4.2c0.1,0-1.1,0.6-2,0.9c-12,4.8-40,4.1-74.2,4.1
	c-44.9,0-82-0.4-82-7.6c0-5.3,15.2-6.1,41.3-11.5c5.3-1.8,10.6-3.2,16.2-4.3c2.3-0.6,4.2-1.2,5.2-1.3C93.8,1.6,75.7,2.9,64.5,4.6
	c-8.7,1.3-15.7,3.8-20.8,5.6c-9.3,3.3-11.1,8.1-11.1,10.8c0,10.8,18.3,13.9,32,16c17,2.5,39.2,3.3,63,3.3c23.8,0,46.6-0.8,63.6-3.3
	c8.7-1.3,15.7-2.8,20.7-4.6c9.3-3.3,11.3-8.7,11.3-11.4C223.3,12.2,206.6,5.1,192.8,3z"/>
<path fill-rule="evenodd" clip-rule="evenodd" fill="#FDC336" d="M196.2,3.2c-11.7-2.2-43.5-2.4-60.5-2.9c7.5,0.4,14.8,1.5,21.9,3.2
	c2.5,0.1,5.2,0.2,8.1,0.3c29.8,2.8,48.1,7.6,48,14.7c0,3.9-5.3,6.2-6.2,6.6c-12.9,6.5-42.9,5.5-79.6,5.5c-48.1,0-88.5-2.4-88.5-12.1
	C39.5,11.1,57.3,8,87.3,4c5.3-0.4,9.8-0.8,13.6-1.1c7.5-1.6,15.3-2.6,23.3-2.8c0.1,0,0.2,0,0.3-0.1C108.6,0.8,72.1,1.6,60,3.8
	c-9.4,1.7-17,3.3-22.4,5.7c-10,4.4-11.9,10.9-11.9,14.5c0,14.6,19.6,18.8,34.4,21.5c18.2,3.4,42,4.5,67.6,4.5
	c25.5,0,50-1.1,68.2-4.5c9.4-1.7,16.8-3.8,22.3-6.2c10-4.4,12.1-11.7,12.1-15.3C230.2,12.3,210.9,5.9,196.2,3.2z"/>
</svg>
